<?xml version="1.0" encoding="UTF-8"?>
<!DOCTYPE svg PUBLIC "-//W3C//DTD SVG 1.1//EN" "http://www.w3.org/Graphics/SVG/1.1/DTD/svg11.dtd">
<!-- Creator: CorelDRAW 2018 -->
<svg xmlns="http://www.w3.org/2000/svg" xml:space="preserve" width="133.773mm" height="38.0998mm" version="1.1" style="shape-rendering:geometricPrecision; text-rendering:geometricPrecision; image-rendering:optimizeQuality; fill-rule:evenodd; clip-rule:evenodd"
viewBox="0 0 13377.32 3809.98"
 xmlns:xlink="http://www.w3.org/1999/xlink">
 <defs>
  <style type="text/css">
   <![CDATA[
    .fil0 {fill:#C5D30D;fill-rule:nonzero}
    .fil1 {fill:white;fill-rule:nonzero}
   ]]>
  </style>
 </defs>
 <g id="Layer_x0020_1">
  <metadata id="CorelCorpID_0Corel-Layer"/>
  <g id="_729985416">
   <path class="fil0" d="M1082.75 2758.05c68.83,-92.55 66.38,-240.36 -4.18,-331.49 -78.42,-101.24 -227.11,-110.66 -314.67,-20.27 -46.86,48.42 -66.22,107.76 -71.07,173.23 -10.68,143.88 84.88,261.57 213.64,264.97l16.73 0c66.66,-2.24 119.57,-32.6 159.55,-86.44z"/>
   <path class="fil0" d="M1207.89 976.48l0 690.94 -657.87 -701.92 -550.01 0 0 1878.99 438.75 0c0,-347 0,-690.49 0,-1032.89 89.98,0 177.03,0 263.72,0 0,147.69 0,297.1 0,448.08 10.21,-7.91 13.93,-9.83 16.32,-12.81 151.65,-188.27 450.5,-145.86 581.05,35.88 113.33,158.04 117.67,331.36 63.95,511.02 -4.87,16.38 -12.34,31.99 -19.63,50.72l491.71 0 0 -1868.01 -627.99 0z"/>
   <polygon class="fil1" points="2098.6,983.78 2314.83,983.78 2814.38,1640.13 2814.38,983.78 3045.73,983.78 3045.73,2049.78 2846.37,2049.78 2329.96,1372.11 2329.96,2049.78 2098.6,2049.78 "/>
   <path class="fil1" d="M3913.95 1603.57l-141.66 -345.67 -141.66 345.67 283.32 0zm-246.83 -627.42l216.23 0 457.07 1073.63 -245.33 0 -97.49 -239.1 -450.76 0 -97.51 239.1 -239 0 456.79 -1073.63z"/>
   <polygon class="fil1" points="4616.1,1200.03 4291.48,1200.03 4291.48,983.78 5174.72,983.78 5174.72,1200.03 4850.51,1200.03 4850.51,2049.78 4616.1,2049.78 "/>
   <path class="fil1" d="M5337.94 1592.91l0 -609.13 234.41 0 0 603.04c0,173.59 86.77,263.45 229.96,263.45 143.2,0 229.96,-86.78 229.96,-255.84l0 -610.65 234.42 0 0 601.52c0,322.86 -181.02,481.24 -467.61,481.24 -286.19,0 -461.14,-159.92 -461.14,-473.63z"/>
   <path class="fil1" d="M6978.02 1501.55c114.27,0 179.8,-60.94 179.8,-150.8l0 -3.01c0,-100.52 -70.18,-152.3 -184.26,-152.3l-233.19 0 0 306.11 237.65 0zm-472.06 -517.77l487.42 0c135.31,0 240.49,38.04 310.47,108.11 59.46,59.4 91.41,143.15 91.41,243.65l0 3.06c0,172.07 -92.83,280.19 -228.54,330.46l260.5 380.72 -274.26 0 -228.34 -341.14 -184.25 0 0 341.14 -234.41 0 0 -1066z"/>
   <polygon class="fil1" points="7607.03,983.78 8411.18,983.78 8411.18,1192.38 7840.02,1192.38 7840.02,1408.63 8342.42,1408.63 8342.42,1617.3 7840.02,1617.3 7840.02,1841.13 8418.67,1841.13 8418.67,2049.78 7607.03,2049.78 "/>
   <path class="fil1" d="M9134.44 1844.18c103.56,0 165.85,-36.54 165.85,-115.74l0 -3.04c0,-71.59 -53.19,-115.75 -173.33,-115.75l-271.22 0 0 234.53 278.7 0zm-62.49 -429.44c103.55,0 169.08,-33.51 169.08,-112.71l0 -3.04c0,-70.04 -54.81,-109.64 -153.71,-109.64l-231.58 0 0 225.39 216.21 0zm-444.56 -430.96l494.92 0c121.76,0 217.62,33.5 278.7,94.39 48.75,48.74 73.02,108.15 73.02,181.22l0 3.08c0,120.28 -63.92,187.3 -140.16,229.94 123.37,47.2 199.62,118.78 199.62,261.91l0 3.06c0,194.93 -158.36,292.4 -399.05,292.4l-507.05 0 0 -1066z"/>
   <polygon class="fil1" points="9726.84,983.78 9961.46,983.78 9961.46,1836.58 10492.98,1836.58 10492.98,2049.78 9726.84,2049.78 "/>
   <path class="fil1" d="M11449.24 1519.81l0 -3.03c0,-182.76 -133.89,-335.03 -322.8,-335.03 -188.9,0 -319.76,149.22 -319.76,331.95l0 3.08c0,182.74 134.09,335.01 322.8,335.01 188.9,0 319.76,-149.24 319.76,-331.98zm-887.89 0l0 -3.03c0,-303.06 239.26,-551.28 568.13,-551.28 329.06,0 565.09,245.15 565.09,548.2l0 3.08c0,303.04 -239.26,551.24 -568.13,551.24 -329.06,0 -565.09,-245.15 -565.09,-548.21z"/>
   <polygon class="fil1" points="11760.1,983.78 12011.3,983.78 12232.16,1705.61 12471.23,980.73 12672.27,980.73 12911.33,1705.61 13132.19,983.78 13377.33,983.78 13013.27,2057.38 12809.2,2057.38 12568.71,1359.91 12328.03,2057.38 12123.96,2057.38 "/>
   <polygon class="fil1" points="2098.6,2425.08 2404.35,2425.08 2404.35,2489.9 2171.09,2489.9 2171.09,2597.09 2377.75,2597.09 2377.75,2661.92 2171.09,2661.92 2171.09,2772.65 2407.12,2772.65 2407.12,2837.43 2098.6,2837.43 "/>
   <polygon class="fil1" points="2493.34,2425.08 2570.5,2425.08 2695.84,2620.07 2821.33,2425.08 2898.51,2425.08 2898.51,2837.43 2826.02,2837.43 2826.02,2541.74 2695.84,2736.1 2693.57,2736.1 2564.61,2542.89 2564.61,2837.43 2493.34,2837.43 "/>
   <path class="fil1" d="M3196.09 2773.24c49.53,0 79.59,-19.44 79.59,-56.53l0 -1.22c0,-34.74 -27.81,-55.35 -84.81,-55.35l-114.9 0 0 113.1 120.12 0zm-21.22 -174.36c46.58,0 77.87,-18.29 77.87,-55.99l0 -1.15c0,-32.4 -26.07,-52.43 -72.47,-52.43l-104.3 0 0 109.57 98.9 0zm-170.17 -173.8l184.96 0c47.08,0 84.11,12.98 107.76,36.55 18.25,18.24 27.65,40.65 27.65,68.32l0 1.17c0,49.47 -28.18,75.99 -58.78,91.89 48.16,16.5 81.87,44.21 81.87,100.15l0 1.17c0,73.64 -60.65,113.1 -152.6,113.1l-190.86 0 0 -412.35z"/>
   <path class="fil1" d="M3679.82 2673.67l-71.27 -164.92 -70.75 164.92 142.02 0zm-103.78 -251.5l67.27 0 181.47 415.26 -76.66 0 -41.88 -99.53 -194.86 0 -42.41 99.53 -74.21 0 181.28 -415.26z"/>
   <polygon class="fil1" points="3895.53,2425.08 3967.87,2425.08 3967.87,2771.46 4184.69,2771.46 4184.69,2837.43 3895.53,2837.43 "/>
   <path class="fil1" d="M4509.91 2673.67l-71.19 -164.92 -70.79 164.92 141.98 0zm-103.75 -251.5l67.35 0 181.21 415.26 -76.45 0 -41.87 -99.53 -194.97 0 -42.47 99.53 -74.23 0 181.43 -415.26z"/>
   <path class="fil1" d="M4682.03 2632.43l0 -1.15c0,-115.47 88.38,-213.24 212.57,-213.24 71.8,0 116.09,20.02 158.56,55.96l-46.11 54.77c-31.75,-27.08 -62.9,-44.19 -115.28,-44.19 -76.05,0 -133.69,66.58 -133.69,145.48l0 1.22c0,84.82 55.82,147.23 139.95,147.23 39.04,0 74.23,-12.33 99.72,-31.18l0 -77.2 -105.58 0 0 -63.02 175.56 0 0 173.21c-40.45,34.74 -98.9,64.17 -171.92,64.17 -129.04,0 -213.78,-91.88 -213.78,-212.06z"/>
   <polygon class="fil1" points="5162.18,2425.08 5467.79,2425.08 5467.79,2489.9 5234.59,2489.9 5234.59,2597.09 5441.29,2597.09 5441.29,2661.92 5234.59,2661.92 5234.59,2772.65 5470.82,2772.65 5470.82,2837.43 5162.18,2837.43 "/>
   <polygon class="fil1" points="5556.78,2425.08 5623.93,2425.08 5844.99,2710.19 5844.99,2425.08 5916.18,2425.08 5916.18,2837.43 5855.5,2837.43 5628.17,2544.08 5628.17,2837.43 5556.78,2837.43 "/>
   <path class="fil1" d="M5994.66 2777.36l43.48 -51.83c39.44,34.16 78.88,53.59 130.25,53.59 44.9,0 73.01,-20.61 73.01,-51.83l0 -1.18c0,-29.44 -16.38,-45.36 -93.03,-63.04 -87.78,-21.19 -137.33,-47.13 -137.33,-123.09l0 -1.19c0,-70.69 58.86,-119.58 140.77,-119.58 60.27,0 108,18.25 149.67,51.84l-38.84 54.79c-37.01,-27.71 -74.23,-42.43 -111.84,-42.43 -42.48,0 -67.35,21.8 -67.35,48.88l0 1.19c0,31.82 19.01,45.96 97.89,64.79 87.17,21.21 132.47,52.44 132.47,120.78l0 1.16c0,77.16 -60.67,123.13 -147.24,123.13 -63.1,0 -122.56,-21.8 -171.91,-65.98z"/>
   <path class="fil1" d="M6732.68 2639.51c55.01,0 88.99,-30.65 88.99,-73.62l0 -1.18c0,-48.29 -34.79,-73.66 -88.99,-73.66l-84.14 0 0 148.46 84.14 0zm-156.54 -214.43l162.61 0c96.07,0 156.74,54.79 156.74,137.85l0 1.2c0,92.47 -74.22,140.79 -165.04,140.79l-81.91 0 0 132.51 -72.4 0 0 -412.35z"/>
   <polygon class="fil1" points="6969.72,2425.08 7042.13,2425.08 7042.13,2771.46 7258.95,2771.46 7258.95,2837.43 6969.72,2837.43 "/>
   <path class="fil1" d="M7550.6 2299.64l64.72 28.28 -75.45 57.11 -55.41 0 66.14 -85.39zm33.57 374.03l-71.39 -164.92 -70.6 164.92 141.99 0zm-103.76 -251.5l67.15 0 181.42 415.26 -76.65 0 -41.67 -99.53 -194.97 0 -42.47 99.53 -74.23 0 181.42 -415.26z"/>
   <path class="fil1" d="M7764.98 2777.36l43.69 -51.83c39.44,34.16 78.88,53.59 130.25,53.59 44.7,0 73.02,-20.61 73.02,-51.83l0 -1.18c0,-29.44 -16.59,-45.36 -93.25,-63.04 -87.77,-21.19 -137.12,-47.13 -137.12,-123.09l0 -1.19c0,-70.69 58.85,-119.58 140.77,-119.58 60.07,0 107.8,18.25 149.46,51.84l-38.63 54.79c-37.21,-27.71 -74.23,-42.43 -112.05,-42.43 -42.47,0 -67.14,21.8 -67.14,48.88l0 1.19c0,31.82 18.8,45.96 97.68,64.79 87.38,21.21 132.68,52.44 132.68,120.78l0 1.16c0,77.16 -60.67,123.13 -147.44,123.13 -62.9,0 -122.36,-21.8 -171.92,-65.98z"/>
   <polygon class="fil1" points="8262.12,2492.24 8131.47,2492.24 8131.47,2425.08 8466,2425.08 8466,2492.24 8335.34,2492.24 8335.34,2837.43 8262.12,2837.43 "/>
   <polygon class="fil1" points="8546.9,2837.43 8619.38,2837.43 8619.38,2425.09 8546.9,2425.09 "/>
   <path class="fil1" d="M8711.13 2632.43l0 -1.15c0,-117.21 87.78,-213.24 212.77,-213.24 76.05,0 121.76,26.5 161.19,64.19l-46.31 53.62c-32.97,-30.64 -68.37,-51.27 -115.49,-51.27 -79.08,0 -136.11,64.82 -136.11,145.48l0 1.22c0,80.69 57.03,146.67 136.11,146.67 50.56,0 82.93,-20.63 118.52,-53.62l46.32 47.13c-42.88,44.76 -90.01,73.03 -167.27,73.03 -120.13,0 -209.73,-93.64 -209.73,-212.06z"/>
   <path class="fil1" d="M9413.96 2673.67l-71.19 -164.92 -70.79 164.92 141.98 0zm-103.76 -251.5l67.35 0 181.23 415.26 -76.46 0 -41.86 -99.53 -194.78 0 -42.47 99.53 -74.23 0 181.22 -415.26z"/>
   <path class="fil1" d="M9594.97 2777.36l43.49 -51.83c39.44,34.16 79.08,53.59 130.25,53.59 44.7,0 73.01,-20.61 73.01,-51.83l0 -1.18c0,-29.44 -16.38,-45.36 -93.03,-63.04 -87.78,-21.19 -137.13,-47.13 -137.13,-123.09l0 -1.19c0,-70.69 58.66,-119.58 140.57,-119.58 60.07,0 108,18.25 149.67,51.84l-38.84 54.79c-37.21,-27.71 -74.22,-42.43 -111.85,-42.43 -42.47,0 -67.34,21.8 -67.34,48.88l0 1.19c0,31.82 19.01,45.96 97.89,64.79 87.17,21.21 132.67,52.44 132.67,120.78l0 1.16c0,77.16 -60.87,123.13 -147.44,123.13 -62.9,0 -122.57,-21.8 -171.92,-65.98z"/>
  </g>
 </g>
</svg>
